<svg xmlns="http://www.w3.org/2000/svg" xmlns:xlink="http://www.w3.org/1999/xlink" width="180" height="80" viewBox="0 0 180 80" fill="none"><g opacity="1" transform="translate(12.800000000000011 18.5)  rotate(0 77.6 19.275000000000002)"><path id="文本 1" fill-rule="evenodd" style="fill:#84CC16" transform="translate(0 0)  rotate(0 77.6 19.275000000000002)" opacity="1" d="M91.15 24.08C91.15 29.5 88.18 33.4 88.18 33.4C85.2 37.3 80.85 37.3 80.85 37.3C78.25 37.3 75.7 35.9 75.7 35.9C70.7 37.1 67.25 37.1 67.25 37.1C67 36.95 67 35.4 67 35.4C67 31.75 69.93 19.75 69.93 19.75C72.85 7.75 72.85 3.45 72.85 3.45C72.85 2.35 72.75 1.35 72.75 1.35C77.6 0 81.8 0 81.8 0C82.1 0.5 82.1 2.1 82.1 2.1C82.1 5.75 79.65 16.3 79.65 16.3C82.55 14.55 85 14.55 85 14.55C87.45 14.55 89.3 16.6 89.3 16.6C91.15 18.65 91.15 24.08 91.15 24.08ZM98.85 3.45C98.85 2.35 98.75 1.35 98.75 1.35C103.6 0 107.8 0 107.8 0C108.1 0.5 108.1 2.1 108.1 2.1C108.1 5.75 105.65 16.3 105.65 16.3C108.55 14.55 111 14.55 111 14.55C113.45 14.55 115.3 16.6 115.3 16.6C117.15 18.65 117.15 24.08 117.15 24.08C117.15 29.5 114.18 33.4 114.18 33.4C111.2 37.3 106.85 37.3 106.85 37.3C104.25 37.3 101.7 35.9 101.7 35.9C96.7 37.1 93.25 37.1 93.25 37.1C93 36.95 93 35.4 93 35.4C93 31.75 95.93 19.75 95.93 19.75C98.85 7.75 98.85 3.45 98.85 3.45ZM128.25 30.6C128.25 32.35 128.85 32.35 128.85 32.35C129.35 32.35 131 31.7 131 31.7L131.55 31.45L132.75 33.9C131.15 35.3 128.55 36.3 128.55 36.3C125.95 37.3 123.83 37.3 123.83 37.3C121.7 37.3 120.35 36.08 120.35 36.08C119 34.85 119 32.55 119 32.55C119 30.25 121.53 19.72 121.53 19.72C124.05 9.2 124.05 4.1 124.05 4.1C124.05 3 123.75 1.3 123.75 1.3C128.45 0 132.85 0 132.85 0C133.3 0.8 133.3 2.6 133.3 2.6C133.3 6 130.78 17.43 130.78 17.43C128.25 28.85 128.25 30.6 128.25 30.6ZM42.15 21.85C42.15 21.85 42.5 21.5 42.7 21C42.7 21 42.75 20.85 42.95 20.53C42.95 20.53 42.9594 20.5145 42.9747 20.4876C42.8543 21.2456 42.5418 22.7981 41.73 25.75C41.73 25.75 40.4 30.55 40.4 32.65C40.4 32.65 40.4 37.3 45.15 37.3C45.15 37.3 48.95 37.3 53.1 34.8C53.1 34.8 53.85 37.3 56.95 37.3C56.95 37.3 59.05 37.3 61.8 36.25C61.8 36.25 64.55 35.2 66 34.05L65.1 31.55L62.65 32.2C62.65 32.2 62.2 32.2 62.23 31.2C62.23 31.2 62.25 30.2 63.58 23.65C63.58 23.65 64.9 17.1 64.9 14.85L63.55 14.85C63.55 14.85 58 14.85 55.7 15.85C55.7 15.85 55.7 19.6 53.95 27.15C53.95 27.15 53.2 30.55 53.05 31.35C53.05 31.35 51.75 32 50.9 32C50.9 32 49.65 32 49.65 30.7C49.65 30.7 49.65 29.75 51.03 24.6C51.03 24.6 52.4 19.45 52.4 17.6C52.4 17.6 52.4 15.75 52 14.9C52 14.9 45.9 14.9 41.35 15.9L41.2699 16.5009C40.0139 16.3072 38.382 16.096 36.75 16C36.75 16 39.1 5.5 39.1 2.65C39.1 2.65 39.1 1.5 38.9 1.2C38.9 1.2 34.05 1.2 29.15 2.75L29.2 3.45C29.2 3.45 29.2 7.95 27.55 16.1C27.55 16.1 25.55 16.25 21.9 16.75C21.9 16.75 22.15 14.4 22.15 12.55C22.15 12.55 22.15 7.5 20.55 4.68C20.55 4.68 18.95 1.85 14.85 1.85C14.85 1.85 8.95 1.85 2.55 7.55L4.45 10.15C4.45 10.15 8.6 7.2 10.7 7.2C10.7 7.2 12.05 7.2 12.5 8.35C12.5 8.35 12.95 9.5 12.95 12.63C12.95 12.63 12.95 15.75 12.45 18.75C12.45 18.75 6.2 21.15 3.1 24.72C3.1 24.72 0 28.3 0 31.45C0 31.45 0 34.6 1.9 36.57C1.9 36.57 3.8 38.55 6.83 38.55C6.83 38.55 9.85 38.55 12.27 37.07C12.27 37.07 14.7 35.6 16.45 33C16.45 33 19.9 27.95 21.35 20.65C21.35 20.65 24.05 20.2 26.7 20.05C26.7 20.05 24.5 29.8 24.5 32.35C24.5 32.35 24.5 37.3 29.45 37.3C29.45 37.3 33.4 37.3 38.5 34.1L37.4 31.55C37.4 31.55 36.05 32.05 35.32 32.05C35.32 32.05 34.6 32.05 34.45 31.73C34.45 31.73 34.3 31.4 34.3 30.55C34.3 30.55 34.3 27.6 35.8 20.45C35.8 20.45 38.65 20.85 42.15 21.85ZM41.2699 16.5009C42.6306 16.7107 43.55 16.9 43.55 16.9L43.55 17.5C43.55 18.75 43.4 19.23 43.4 19.23C43.25 19.7 43.2 19.95 43.2 19.95C43.1608 20.1458 43.0297 20.3906 42.9747 20.4876C43.05 20.0131 43.05 19.85 43.05 19.85C43.05 18.75 41.25 16.65 41.25 16.65L41.2699 16.5009ZM144.3 28.85C144.3 28.85 147.1 28.5 150.9 26.8C150.9 26.8 152.7 25.95 153.95 24.35C153.95 24.35 155.2 22.75 155.2 20.7C155.2 20.7 155.2 17.9 152.88 16.23C152.88 16.23 150.55 14.55 146.7 14.55C146.7 14.55 141.15 14.55 137.37 18C137.37 18 133.6 21.45 133.6 27.65C133.6 27.65 133.6 32.35 135.92 34.82C135.92 34.82 138.25 37.3 142.5 37.3C142.5 37.3 144.4 37.3 146.3 36.78C146.3 36.78 148.2 36.25 149.42 35.6C149.42 35.6 150.65 34.95 151.78 34.08C151.78 34.08 152.9 33.2 153.2 32.9L153.75 32.35L152.15 30.2L151.3 30.7C151.3 30.7 150.45 31.25 149 31.78C149 31.78 147.55 32.3 146.35 32.3C146.35 32.3 143.6 32.3 143.05 29L144.3 28.85ZM147.2 19.68C147.2 19.68 147.2 21.15 145.75 23.33C145.75 23.33 144.3 25.5 142.85 25.7C142.85 25.7 143 22.1 144.05 20.15C144.05 20.15 145.1 18.2 146.35 18.2C146.35 18.2 147.2 18.2 147.2 19.68ZM76.25 32.55C77.15 33 77.9 33 77.9 33C79.6 33 80.68 29.35 80.68 29.35C81.75 25.7 81.75 22.63 81.75 22.63C81.75 19.55 80.55 19.55 80.55 19.55C79.85 19.55 78.75 20.1 78.75 20.1C76.6 29.35 76.25 32.55 76.25 32.55ZM104.75 20.1C102.6 29.35 102.25 32.55 102.25 32.55C103.15 33 103.9 33 103.9 33C105.6 33 106.68 29.35 106.68 29.35C107.75 25.7 107.75 22.63 107.75 22.63C107.75 19.55 106.55 19.55 106.55 19.55C105.85 19.55 104.75 20.1 104.75 20.1ZM12 22.75C12 22.75 11.15 27.55 9.55 30.6C9.55 30.6 7.95 33.65 6.1 33.65C6.1 33.65 5.1 33.65 4.47 32.85C4.47 32.85 3.85 32.05 3.85 31C3.85 31 3.85 29 6.08 26.55C6.08 26.55 8.3 24.1 12 22.75Z" /></g></svg>